<svg width="200" height="200" viewBox="0 0 200 200" fill="none" xmlns="http://www.w3.org/2000/svg">
<g clip-path="url(#clip0_169_83)">
<path d="M90.9188 116.677L100.741 77.4648L112.985 27.8273C115.243 18.6426 117.687 9.20201 119.787 0C120.776 1.45899 122.02 3.7724 122.951 5.37346L129.018 15.8082L147.614 47.7829L147.802 47.9346L148.036 48.6449L148.194 48.7697C149.242 50.5777 151.069 53.9747 152.181 55.5826L152.558 56.3773L152.973 56.746C153.212 57.3151 153.405 57.7188 153.694 58.2654C160.785 70.2753 167.806 82.3252 174.757 94.4145C175.49 95.6844 176.306 97.0383 176.995 98.3211L178.006 100.063C178.389 100.724 178.638 101.356 179.282 101.716C179.767 101.667 180.275 101.603 180.76 101.588L183.117 101.608L185.927 101.643C187.711 101.658 189.877 101.621 191.623 101.79C193.046 101.645 198.281 101.864 200 101.902C199.146 108.126 197.579 115.172 196.531 121.502L132.102 121.494C131.463 119.641 130.349 117.128 129.592 115.27L124.573 102.899L153.513 102.657C153.001 101.606 152.353 100.478 151.788 99.4408C151.555 99.1163 150.606 97.2384 150.363 96.7794C142.621 83.291 135.494 68.8462 127.749 55.3086C127.097 57.6951 126.511 60.6971 125.966 63.1429C125.057 67.1327 124.175 71.1285 123.323 75.13L123.193 75.3231C123.123 75.7548 123.08 76.1672 122.923 76.5742L122.933 76.738L110.634 131.282C108.579 140.344 106.355 149.609 104.421 158.676L103.01 164.86L102.778 165.892L102.158 168.53L101.761 170.391C101.606 171.062 101.403 171.832 101.292 172.501L100.993 173.619C100.577 175.43 99.6841 178.86 99.4295 180.635L99.2997 181.009L98.355 185.308C97.8989 187.147 97.4736 188.993 97.0773 190.844L96.5101 193.245C96.1189 195.366 95.4997 197.829 95.0475 200L59.5391 138.515C58.1629 138.73 49.6764 138.609 47.7148 138.622L47.2835 138.52C45.3516 138.735 40.0379 138.602 37.9249 138.602L19.049 138.565L6.70783 138.585C4.91757 138.591 1.64403 138.683 0 138.496C0.0799466 136.721 0.807495 132.38 1.11925 130.43C1.60269 127.405 2.0465 123.131 2.69495 120.238C3.09913 119.947 3.65363 120.014 4.18934 120.001C5.51461 119.796 9.28748 119.89 10.8077 119.895L23.2129 119.919C39.4979 119.92 56.5393 120.169 72.7559 119.883C72.8134 119.941 72.7032 119.829 72.7559 119.883H74.3435C74.241 119.832 74.4487 119.944 74.3435 119.883C74.8005 120.018 84.3505 135.226 85.642 137.232C87.5151 130.716 89.2397 123.311 90.9188 116.677Z" fill="#0F7169"/>
</g>
<defs>
<clipPath id="clip0_169_83">
<rect width="200" height="200" fill="white"/>
</clipPath>
</defs>
</svg>
