<svg width="619" height="200" viewBox="0 0 619 200" fill="none" xmlns="http://www.w3.org/2000/svg">
<g clip-path="url(#clip0_169_73)">
<path d="M90.9188 116.677L100.741 77.4648L112.985 27.8273C115.243 18.6426 117.687 9.20201 119.787 0C120.776 1.45899 122.02 3.7724 122.951 5.37346L129.018 15.8082L147.614 47.7829L147.802 47.9346L148.036 48.6449L148.194 48.7697C149.242 50.5777 151.069 53.9747 152.181 55.5826L152.558 56.3773L152.973 56.746C153.212 57.3151 153.405 57.7188 153.694 58.2654C160.785 70.2753 167.806 82.3252 174.757 94.4145C175.49 95.6844 176.306 97.0383 176.995 98.3211L178.006 100.063C178.389 100.724 178.638 101.356 179.282 101.716C179.767 101.667 180.275 101.603 180.76 101.588L183.117 101.608L185.927 101.643C187.711 101.658 189.877 101.621 191.623 101.79C193.046 101.645 198.281 101.864 200 101.902C199.146 108.126 197.579 115.172 196.531 121.502L132.102 121.494C131.463 119.641 130.349 117.128 129.592 115.27L124.573 102.899L153.513 102.657C153.001 101.606 152.353 100.478 151.788 99.4408C151.555 99.1163 150.606 97.2384 150.363 96.7794C142.621 83.291 135.494 68.8462 127.749 55.3086C127.097 57.6951 126.511 60.6971 125.966 63.1429C125.057 67.1327 124.175 71.1285 123.323 75.13L123.193 75.3231C123.123 75.7548 123.08 76.1672 122.923 76.5742L122.933 76.738L110.634 131.282C108.579 140.344 106.355 149.609 104.421 158.676L103.01 164.86L102.778 165.892L102.158 168.53L101.761 170.391C101.606 171.062 101.403 171.832 101.292 172.501L100.993 173.619C100.577 175.43 99.6841 178.86 99.4295 180.635L99.2997 181.009L98.355 185.308C97.8989 187.147 97.4736 188.993 97.0773 190.844L96.5101 193.245C96.1189 195.366 95.4997 197.829 95.0475 200L59.5391 138.515C58.1629 138.73 49.6764 138.609 47.7148 138.622L47.2835 138.52C45.3516 138.735 40.0379 138.602 37.9249 138.602L19.049 138.565L6.70783 138.585C4.91757 138.591 1.64403 138.683 0 138.496C0.0799466 136.721 0.807495 132.38 1.11925 130.43C1.60269 127.405 2.0465 123.131 2.69495 120.238C3.09913 119.947 3.65363 120.014 4.18934 120.001C5.51461 119.796 9.28748 119.89 10.8077 119.895L23.2129 119.919C39.4979 119.92 56.5393 120.169 72.7559 119.883C72.8134 119.941 72.7032 119.829 72.7559 119.883H74.3435C74.241 119.832 74.4487 119.944 74.3435 119.883C74.8005 120.018 84.3505 135.226 85.642 137.232C87.5151 130.716 89.2397 123.311 90.9188 116.677Z" fill="#0F7169"/>
</g>
<path d="M240 142.422V57.4565H273.353C279.499 57.4565 284.956 58.7108 289.727 61.2193C294.497 63.6469 298.217 67.0455 300.885 71.4152C303.634 75.7039 305.009 80.7209 305.009 86.4662C305.009 92.0497 303.675 97.0667 301.006 101.517C298.419 105.887 294.78 109.326 290.091 111.834C285.401 114.343 280.024 115.597 273.96 115.597H259.527V142.422H240ZM259.527 97.6331H273.475C276.952 97.6331 279.741 96.6216 281.843 94.5986C283.946 92.4947 284.997 89.7839 284.997 86.4662C284.997 83.1485 283.865 80.4782 281.601 78.4552C279.418 76.3513 276.507 75.2993 272.868 75.2993H259.527V97.6331Z" fill="white"/>
<path d="M354.646 144C347.369 144 341.062 142.624 335.725 139.873C330.47 137.122 326.427 133.238 323.597 128.221C320.767 123.123 319.352 117.094 319.352 110.135V57.4565H338.879V110.135C338.879 113.372 339.526 116.164 340.819 118.51C342.113 120.857 343.932 122.678 346.277 123.972C348.703 125.267 351.573 125.914 354.888 125.914C358.123 125.914 360.953 125.267 363.378 123.972C365.804 122.678 367.664 120.857 368.957 118.51C370.251 116.164 370.898 113.372 370.898 110.135V57.4565H390.425V110.135C390.425 117.094 388.969 123.123 386.059 128.221C383.229 133.238 379.105 137.122 373.688 139.873C368.351 142.624 362.004 144 354.646 144Z" fill="white"/>
<path d="M411.789 142.422V57.4565H431.316V124.458H467.459V142.422H411.789Z" fill="white"/>
<path d="M513.053 143.879C508.929 143.879 504.967 143.353 501.167 142.301C497.447 141.168 494.051 139.671 490.979 137.81C487.987 135.868 485.521 133.723 483.58 131.377C481.64 128.949 480.427 126.36 479.942 123.608L499.226 118.146C500.116 120.493 501.652 122.556 503.835 124.337C506.099 126.036 508.929 126.926 512.325 127.007C515.64 127.088 518.389 126.319 520.572 124.701C522.836 123.082 523.968 120.978 523.968 118.389C523.968 116.366 523.16 114.586 521.543 113.048C520.006 111.511 517.783 110.337 514.872 109.528L502.865 106.494C498.66 105.442 494.981 103.783 491.828 101.517C488.755 99.2515 486.33 96.5002 484.551 93.2634C482.853 89.9457 482.004 86.183 482.004 81.9752C482.004 73.8023 484.712 67.4501 490.13 62.9186C495.547 58.3062 503.188 56 513.053 56C518.47 56 523.2 56.7687 527.243 58.3062C531.286 59.7628 534.722 61.9476 537.552 64.8607C540.463 67.7738 542.768 71.4152 544.466 75.7848L525.302 81.4897C524.656 79.3048 523.241 77.3223 521.058 75.5421C518.955 73.7618 516.206 72.8717 512.81 72.8717C509.414 72.8717 506.746 73.6405 504.805 75.1779C502.946 76.7154 502.016 78.9407 502.016 81.8538C502.016 83.8768 502.784 85.5761 504.32 86.9517C505.856 88.2464 507.959 89.2175 510.627 89.8648L522.634 92.8993C529.507 94.5986 534.844 97.7949 538.644 102.488C542.525 107.101 544.466 112.36 544.466 118.268C544.466 123.608 543.212 128.18 540.706 131.983C538.28 135.787 534.722 138.74 530.033 140.844C525.343 142.867 519.683 143.879 513.053 143.879Z" fill="white"/>
<path d="M563.088 142.422V57.4565H618.394V75.4207H582.614V90.9572H612.572V108.314H582.614V124.458H619V142.422H563.088Z" fill="white"/>
<defs>
<clipPath id="clip0_169_73">
<rect width="200" height="200" fill="white"/>
</clipPath>
</defs>
</svg>
